<?xml version="1.0" encoding="UTF-8"?>
<svg xmlns="http://www.w3.org/2000/svg" xmlns:xlink="http://www.w3.org/1999/xlink"
     width="1542.84" height="1459.12" viewBox="0 0 645 610">
<defs>
</defs>
<rect x="8.5" y="8" width="650" height="576" fill="#EEEEEE" />
<path d="M0,0 L0,588 L0,0" fill="none" stroke="black" stroke-width="6.3" transform="translate(3,0)" />
<path d="M0,0 L208,8.5 L341.5,17 L517,21 L650,22 L517,21" fill="none" stroke="black" stroke-width="4.3" transform="translate(0,578)" />
<path d="M0,0 L0,448.5 L0,0" fill="none" stroke="black" stroke-width="4.3" transform="translate(638,0)" />
<path d="M0,0 L0,-33 L0,0" fill="none" stroke="black" stroke-width="6.3" transform="translate(275,25)" />
<path d="M0,0 L0,431.98 L0,0" fill="none" stroke="black" stroke-width="5.3" transform="translate(522,25)" />
<path d="M0,0 L12,0 L0,0" fill="none" stroke="black" stroke-width="30.3" transform="translate(512,186.5)" />
<path d="M0,0 L31,0 L0,0" fill="none" stroke="black" stroke-width="4.3" transform="translate(491,170)" />
<path d="M0,0 L31,0 L0,0" fill="none" stroke="black" stroke-width="4.3" transform="translate(491,203)" />
<path d="M0,0 L0,142.12 L0,0" fill="none" stroke="black" stroke-width="5.3" transform="translate(517,456.88)" />
<path d="M0,0 L8,0 L0,0" fill="none" stroke="black" stroke-width="4.3" transform="translate(500,492)" />
<path d="M0,0 L9,10 L0,0" fill="none" stroke="black" stroke-width="4.3" transform="translate(508,492)" />
<path d="M0,0 L9,-10 L0,0" fill="none" stroke="black" stroke-width="4.3" transform="translate(508,492)" />
<path d="M0,0 L17,-8 L0,0" fill="none" stroke="black" stroke-width="4.3" transform="translate(500,524)" />
<path d="M0,0 L0,4 L0,0" fill="none" stroke="black" stroke-width="4.3" transform="translate(502,524)" />
<path d="M0,0 L17,8 L0,0" fill="none" stroke="black" stroke-width="4.3" transform="translate(500,528)" />
<path d="M0,0 L12.5,0 L0,0" fill="none" stroke="black" stroke-width="4.3" transform="translate(517,536)" />
<path d="M0,0 L12.5,-15 L0,0" fill="none" stroke="black" stroke-width="4.3" transform="translate(517,551)" />
<path d="M0,0 L15.5,15 L0,0" fill="none" stroke="black" stroke-width="4.3" transform="translate(517,468)" />
<path d="M0,0 L12.5,-12 L0,0" fill="none" stroke="black" stroke-width="4.3" transform="translate(517,504)" />
<path d="M0,0 L12.5,12 L0,0" fill="none" stroke="black" stroke-width="4.3" transform="translate(517,480)" />
<path d="M0,0 L15,-18 L0,0" fill="none" stroke="black" stroke-width="4.3" transform="translate(517,562)" />
<path d="M0,0 L8,0 L0,0" fill="none" stroke="black" stroke-width="4.3" transform="translate(500,571)" />
<path d="M0,0 L9,9 L0,0" fill="none" stroke="black" stroke-width="4.3" transform="translate(508,571)" />
<path d="M0,0 L9,-9 L0,0" fill="none" stroke="black" stroke-width="4.3" transform="translate(508,571)" />
<path d="M0,0 Q0,-6,7,-6 L108,-3 Q0,-6,7,-6" fill="none" stroke="black" stroke-width="4.3" transform="translate(565,454.5)" />
<path d="M0,0 L0,170 L0,0" fill="none" stroke="black" stroke-width="6.3" transform="translate(115,145)" />
<path d="M0,0 L132,0 L0,0" fill="none" stroke="black" stroke-width="5.3" transform="translate(3,186.5)" />
<path d="M0,0 L0,100 L0,0" fill="none" stroke="black" stroke-width="5.3" transform="translate(57,119)" />
<path d="M0,0 L-45.5,45.5 L0,0" fill="none" stroke="black" stroke-width="5.3" transform="translate(57,141)" />
<path d="M0,0 L162,0 L0,0" fill="none" stroke="black" stroke-width="5.3" transform="translate(57,145)" />
<path d="M0,0 L58,49.5 L0,0" fill="none" stroke="black" stroke-width="5.3" transform="translate(57,137)" />
<path d="M0,0 L25,0 L104,-37 L24,0" fill="none" stroke="black" stroke-width="5.3" transform="translate(115,178)" />
<path d="M0,0 L0,-43 Q-14,-62,-9,-92 Q-7,-102,-17,-107" fill="none" stroke="black" stroke-width="4.3" transform="translate(103,337)" />
<path d="M0,0 L0,97 L24,117 L29,117 L24,117" fill="none" stroke="black" stroke-width="4.3" transform="translate(86,186.5)" />
<path d="M0,0 L83,0 L0,0" fill="none" stroke="black" stroke-width="5.3" transform="translate(3,205)" />
<path d="M0,0 L-30,18 L0,0" fill="none" stroke="black" stroke-width="4.3" transform="translate(33,278)" />
<path d="M0,0 L13,0 L0,0" fill="none" stroke="black" stroke-width="10.3" transform="translate(0,326)" />
<path d="M0,0 L18,0 L0,0" fill="none" stroke="black" stroke-width="8.3" transform="translate(0,299)" />
<path d="M0,0 L0,11 L0,0" fill="none" stroke="black" stroke-width="5.3" transform="translate(152,134)" />
<path d="M0,0 L0,20.58 L0,0" fill="none" stroke="black" stroke-width="5.3" transform="translate(190,134)" />
<path d="M0,0 L29,38 L0,0" fill="none" stroke="black" stroke-width="5.3" transform="translate(190,145)" />
<path d="M0,0 L0,-18.57 L0,0" fill="none" stroke="black" stroke-width="5.3" transform="translate(207.5,186.5)" />
<path d="M0,0 L206.5,0 L0,0" fill="none" stroke="black" stroke-width="5.3" transform="translate(207.5,186.5)" />
<path d="M0,0 L16,0 L0,0" fill="none" stroke="black" stroke-width="10.3" transform="translate(203,85)" />
<path d="M0,0 L166,0 L0,0" fill="none" stroke="black" stroke-width="6.3" transform="translate(219,85)" />
<path d="M0,0 L0,270, L0,0" fill="none" stroke="black" stroke-width="4.3" transform="translate(349,98)" />
<path d="M0,0 Q-14,2,-18,16 Q-14,2,0,0" fill="none" stroke="black" stroke-width="4.3" transform="translate(367,85)" />
<path d="M0,0 Q14,2,18,16 Q14,2,0,0" fill="none" stroke="black" stroke-width="4.3" transform="translate(331,85)" />
<path d="M0,0 L8,0 L0,0" fill="none" stroke="black" stroke-width="4.3" transform="translate(349,131)" />
<path d="M0,0 L96,-56 L0,0" fill="none" stroke="black" stroke-width="5.3" transform="translate(219,141)" />
<path d="M0,0 L518,0 L0,0" fill="none" stroke="black" stroke-width="5.3" transform="translate(120,25)" />
<path d="M0,0 L0,60 L0,0" fill="none" stroke="black" stroke-width="5.3" transform="translate(320.5,25)" />
<path d="M0,0 Q3,-56,56,-60 Q3,-56,0,0" fill="none" stroke="black" stroke-width="5.3" transform="translate(219,85)" />
<path d="M0,0 Q43.5,0,45.5,60 Q43.5,0,0,0" fill="none" stroke="black" stroke-width="5.3" transform="translate(275,25)" />
<path d="M0,0 L5.5,0 L0,0" fill="none" stroke="black" stroke-width="6.3" transform="translate(320.5,54)" />
<path d="M0,0 L0,75 L0,0" fill="none" stroke="black" stroke-width="6.3" transform="translate(407.5,84)" />
<path d="M0,0 L115.5,0 L0,0" fill="none" stroke="black" stroke-width="5.3" transform="translate(407.5,111)" />
<path d="M0,0 L224,0 L0,0" fill="none" stroke="black" stroke-width="5.3" transform="translate(414,259)" />
<path d="M0,0 L25,25 L0,0" fill="none" stroke="black" stroke-width="5.3" transform="translate(414,149)" />
<path d="M0,0 Q20,0,25,-12.5 Q20,0,0,0" fill="none" stroke="black" stroke-width="5.3" transform="translate(414,186.5)" />
<path d="M0,0 L-2,8 L-25,48 L-2,8" fill="none" stroke="black" stroke-width="5.3" transform="translate(439,174)" />
<path d="M0,0 L-15,-15 L0,0" fill="none" stroke="black" stroke-width="4.3" transform="translate(429,137.5)" />
<path d="M0,0 L0,-12 L0,0" fill="none" stroke="black" stroke-width="4.3" transform="translate(468.5,123)" />
<path d="M0,0 L-15,15 L0,0" fill="none" stroke="black" stroke-width="4.3" transform="translate(429,235.5)" />
<path d="M0,0 L0,9 L0,0" fill="none" stroke="black" stroke-width="4.3" transform="translate(468.5,250)" />
<path d="M0,0 L14,-14 L0,0" fill="none" stroke="black" stroke-width="4.3" transform="translate(508,137.5)" />
<path d="M0,0 L7,7 L14,7 L7,7" fill="none" stroke="black" stroke-width="4.3" transform="translate(508,235.5)" />
<path d="M0,0 L3,3 L3,29 L3,3" fill="none" stroke="black" stroke-width="4.3" transform="translate(448,230)" />
<path d="M0,0 L0,6.5, L0,0" fill="none" stroke="black" stroke-width="21.3" transform="translate(378.5,247.5)" />
<path d="M0,0 L64,0, L0,0" fill="none" stroke="black" stroke-width="5.3" transform="translate(349,247.5)" />
<path d="M0,0 L131,0 L0,0" fill="none" stroke="black" stroke-width="5.3" transform="translate(3,450)" />
<path d="M0,0 L124,0 L0,0" fill="none" stroke="black" stroke-width="5.3" transform="translate(3,435)" />
<path d="M0,0 L7,15 L0,0" fill="none" stroke="black" stroke-width="5.3" transform="translate(127,435)" />
<path d="M0,0 L0,147.58 L0,0" fill="none" stroke="black" stroke-width="4.3" transform="translate(115,435)" />
<path d="M0,0 L5,0 L0,0" fill="none" stroke="black" stroke-width="6.3" transform="translate(127,394.5)" />
<path d="M0,0 L9,0 L28,-25 L9,0" fill="none" stroke="black" stroke-width="4.3" transform="translate(106,475)" />
<path d="M0,0 L9,0 L0,0" fill="none" stroke="black" stroke-width="4.3" transform="translate(106,494)" />
<path d="M0,0 L0,64 L0,0" fill="none" stroke="black" stroke-width="5.3" transform="translate(36.5,401)" />
<path d="M0,0 L-33.5,24 L0,0" fill="none" stroke="black" stroke-width="4.3" transform="translate(36.5,403)" />
<path d="M0,0 L0,30 L0,0" fill="none" stroke="black" stroke-width="4.3" transform="translate(86,435)" />
<path d="M0,0 L14,20.5 L27,20.5 L14,20.5" fill="none" stroke="black" stroke-width="4.3" transform="translate(115,494)" />
<path d="M0,0 L0,42.23 L0,0" fill="none" stroke="black" stroke-width="5.3" transform="translate(155.5,542)" />
<path d="M0,0 L0,17.64 L0,0" fill="none" stroke="black" stroke-width="5.3" transform="translate(92,564)" />
<path d="M0,0 L0,29.82 L0,0" fill="none" stroke="black" stroke-width="10.3" transform="translate(72,551)" />
<path d="M0,0 L19,0 L0,0" fill="none" stroke="black" stroke-width="10.3" transform="translate(67,546)" />
<path d="M0,0 L0,425 L0,0" fill="none" stroke="black" stroke-width="6.3" transform="translate(219,25)" />
<path d="M0,0 L-3,26 L-3,60.5" fill="none" stroke="black" stroke-width="5.3" transform="translate(211,526)" />
<path d="M0,0 L71,0 L0,0" fill="none" stroke="black" stroke-width="9.3" transform="translate(209,526)" />
<path d="M0,0 L20,0 L0,0" fill="none" stroke="black" stroke-width="15.3" transform="translate(273,528.5)" />
<path d="M0,0 L0,65.72 L0,0" fill="none" stroke="black" stroke-width="5.3" transform="translate(290,526)" />
<path d="M0,0 L0,74.5 L0,0" fill="none" stroke="black" stroke-width="7.3" transform="translate(273,452)" />
<path d="M0,0 Q5,47,54,74 Q5,47,0,0" fill="none" stroke="black" stroke-width="5.3" transform="translate(219,452)" />
<path d="M0,0 Q14,-60,60,-74 Q14,-60,0,0" fill="none" stroke="black" stroke-width="5.3" transform="translate(213,526)" />
<path d="M0,0 Q18,25,17,74 Q18,25,0,0" fill="none" stroke="black" stroke-width="5.3" transform="translate(273,452)" />
<path d="M0,0 L54,0 L354,6 L54,0" fill="none" stroke="black" stroke-width="6.3" transform="translate(219,452)" />
<path d="M0,0 L0,12 L0,0" fill="none" stroke="black" stroke-width="8.3" transform="translate(205,396)" />
<path d="M0,0 L12.5,45 L0,0" fill="none" stroke="black" stroke-width="5.3" transform="translate(206.5,407)" />
<path d="M0,0 Q2.5,15,4,30 Q2.5,15,0,0" fill="none" stroke="black" stroke-width="5.3" transform="translate(216,441)" />
<path d="M0,0 Q3,38,-6,74 Q3,38,0,0" fill="none" stroke="black" stroke-width="5.3" transform="translate(219,452)" />
<path d="M0,0 L0,15.62 L0,0" fill="none" stroke="black" stroke-width="17.3" transform="translate(341.5,453.38)" />
<path d="M0,0 L0,7 L0,0" fill="none" stroke="black" stroke-width="13.3" transform="translate(341.5,588)" />
<path d="M0,0 L16,-13 L0,0" fill="none" stroke="black" stroke-width="5.3" transform="translate(203,401)" />
<path d="M0,0 Q35,8,57,23 Q35,8,0,0" fill="none" stroke="black" stroke-width="5.3" transform="translate(162,365)" />
<path d="M0,0 L0,21 L0,0" fill="none" stroke="black" stroke-width="4.3" transform="translate(205,353)" />
<path d="M0,0 L31,0 L69,-20.5 L31,0" fill="none" stroke="black" stroke-width="5.3" transform="translate(150,387.5)" />
<path d="M0,0 L0,120 L0,0" fill="none" stroke="black" stroke-width="6.3" transform="translate(127,315)" />
<path d="M0,0 L12,0 A14,14,360,1,1,25,0" fill="none" stroke="black" stroke-width="4.3" transform="translate(127,387.5)" />
<path d="M0,0 Q11,-26,35,-7 Q13,-26,0,0" fill="none" stroke="black" stroke-width="6.3" transform="translate(127,372)" />
<path d="M0,0 L78,0 L0,0" fill="none" stroke="black" stroke-width="5.3" transform="translate(127,319.5)" />
<path d="M0,0 L52,50 L0,0" fill="none" stroke="black" stroke-width="5.3" transform="translate(127,315)" />
<path d="M0,0 L0,45.5 L0,0" fill="none" stroke="black" stroke-width="5.3" transform="translate(179,319.5)" />
<path d="M0,0 Q30,3,52,28 Q30,3,0,0" fill="none" stroke="black" stroke-width="5.3" transform="translate(127,337)" />
<path d="M0,0 L29,0 L0,0" fill="none" stroke="black" stroke-width="5.3" transform="translate(98,315)" />
<path d="M0,0 L29,0 L0,0" fill="none" stroke="black" stroke-width="5.3" transform="translate(98,337)" />
<path d="M0,0 L0,485.65 L0,0" fill="none" stroke="black" stroke-width="8.3" transform="translate(414,111)" />
<path d="M0,0 L24,0 L0,0" fill="none" stroke="black" stroke-width="12.3" transform="translate(390,528.5)" />
<path d="M0,0 L69,0 L0,0" fill="none" stroke="black" stroke-width="5.3" transform="translate(414,531.5)" />
<path d="M0,0 L14,0 L0,0" fill="none" stroke="black" stroke-width="5.3" transform="translate(414,487)" />
<path d="M0,0 L14,0 L0,0" fill="none" stroke="black" stroke-width="5.3" transform="translate(414,576)" />
<path d="M0,0 L0,10 L7,17 L17,17 L24,10 L24,0 L17,-7 L7,-7 L0,0 L0,10" fill="none" stroke="black" stroke-width="5.3" transform="translate(440.5,526.5)" />
<path d="M0,0 L0,23.5 L0,0" fill="none" stroke="black" stroke-width="5.3" transform="translate(452.5,496)" />
<path d="M0,0 L-30,27.5 L0,0" fill="none" stroke="black" stroke-width="5.3" transform="translate(444,540)" />
<path d="M0,0 L0,21 L0,0" fill="none" stroke="black" stroke-width="11.3" transform="translate(284,431)" />
<path d="M0,0 L0,38 L0,0" fill="none" stroke="black" stroke-width="13.3" transform="translate(252.5,414)" />
<path d="M0,0 Q10,15,36,22 Q10,15,0,0" fill="none" stroke="black" stroke-width="5.3" transform="translate(219,430)" />
<path d="M0,0 L0,17 L0,0" fill="none" stroke="black" stroke-width="4.3" transform="translate(342,435)" />
<path d="M0,0 L0,17 L0,0" fill="none" stroke="black" stroke-width="4.3" transform="translate(335,435)" />
<path d="M0,0 L82,0 L0,0" fill="none" stroke="black" stroke-width="5.3" transform="translate(414,363.5)" />
<path d="M0,0 L14,0 L0,0" fill="none" stroke="black" stroke-width="5.3" transform="translate(414,295.5)" />
<path d="M0,0 L14,0 L0,0" fill="none" stroke="black" stroke-width="5.3" transform="translate(414,431.5)" />
<path d="M0,0 L0,100, L0,0" fill="none" stroke="black" stroke-width="5.3" transform="translate(486.5,313.5)" />
<path d="M0,0 L72.5,0, L0,0" fill="none" stroke="black" stroke-width="5.3" transform="translate(414,313.5)" />
<path d="M0,0 L72.5,0, L0,0" fill="none" stroke="black" stroke-width="5.3" transform="translate(414,413.5)" />
<path d="M0,0 L-3,5, L0,0" fill="none" stroke="black" stroke-width="5.3" transform="translate(489.5,308.5)" />
<path d="M0,0 L3,5, L0,0" fill="none" stroke="black" stroke-width="5.3" transform="translate(486.5,413.5)" />
<path d="M0,0 L63.5,100, L0,0" fill="none" stroke="black" stroke-width="5.3" transform="translate(423,313.5)" />
<path d="M0,0 L-63.5,100, L0,0" fill="none" stroke="black" stroke-width="5.3" transform="translate(486.5,313.5)" />
<path d="M0,0 L264,0, L0,0" fill="none" stroke="black" stroke-width="6.3" transform="translate(150,365)" />
<path d="M0,0 L9.5,0, L0,0" fill="none" stroke="black" stroke-width="4.3" transform="translate(486.5,395)" />
<path d="M0,0 L-12,0, L0,0" fill="none" stroke="black" stroke-width="4.3" transform="translate(486.5,397)" />
<path d="M0,0 L0,24, L52,24 L0,24" fill="none" stroke="black" stroke-width="4.3" transform="translate(472,259)" />
<path d="M0,0 84,0, L0,0" fill="none" stroke="black" stroke-width="5.3" transform="translate(330,411)" />
<path d="M0,0 0,4, L0,0" fill="none" stroke="black" stroke-width="6.3" transform="translate(330,411)" />
<path d="M0,0 0,4, L0,0" fill="none" stroke="black" stroke-width="6.3" transform="translate(375,411)" />
<path d="M0,0 L0,15 Q0,43,20,46 Q0,41,0,15" fill="none" stroke="black" stroke-width="5.3" transform="translate(310,365)" />
<path d="M0,0 L0,15 Q0,43,-21.5,46 Q0,43,0,15" fill="none" stroke="black" stroke-width="5.3" transform="translate(351.5,365)" />
<path d="M0,0 L0,15 Q0,43,21,46 Q0,43,0,15" fill="none" stroke="black" stroke-width="5.3" transform="translate(354,365)" />
<path d="M0,0 Q-8,40,-34,46 Q-8,40,0,0" fill="none" stroke="black" stroke-width="5.3" transform="translate(414,365)" />
<path d="M0,0 Q0,-24,24.5,-24 Q0,-24,0,0" fill="none" stroke="black" stroke-width="5.3" transform="translate(354,365)" />
<path d="M0,0 Q-12,-24,-35.5,-24 Q-12,-24,0,0" fill="none" stroke="black" stroke-width="5.3" transform="translate(414,365)" />
<path d="M0,0 L68,0 L0,0" fill="none" stroke="black" stroke-width="5.3" transform="translate(349,341)" />
<path d="M0,0 L0,29 L0,0" fill="none" stroke="black" stroke-width="5.3" transform="translate(268,365)" />
<path d="M0,0 L0,5 L0,0" fill="none" stroke="black" stroke-width="21.3" transform="translate(378.5,336)" />
<path d="M0,0 L112,0 L0,0" fill="none" stroke="black" stroke-width="5.3" transform="translate(208,283)" />
<path d="M0,0 L11,0 L0,0" fill="none" stroke="black" stroke-width="5.3" transform="translate(208,314)" />
<path d="M0,0 L11,0 L0,0" fill="none" stroke="black" stroke-width="5.3" transform="translate(208,250)" />
<path d="M0,0 L11,0 L0,0" fill="none" stroke="black" stroke-width="5.3" transform="translate(208,220)" />
<path d="M0,0 Q0,31,-15,31 Q0,31,0,0" fill="none" stroke="black" stroke-width="4.3" transform="translate(234,283)" />
<path d="M0,0 Q15,0,15,18 Q15,0,0,0" fill="none" stroke="black" stroke-width="4.3" transform="translate(219,265)" />
<path d="M0,0 L0,49 L0,0" fill="none" stroke="black" stroke-width="4.3" transform="translate(251,283)" />
<path d="M0,0 L0,49 L0,0" fill="none" stroke="black" stroke-width="4.3" transform="translate(301,283)" />
<path d="M0,0 L54,0 L0,0" fill="none" stroke="black" stroke-width="4.3" transform="translate(249,330)" />
<path d="M0,0 L0,6 L0,0" fill="none" stroke="black" stroke-width="14.3" transform="translate(276,283)" />
<path d="M0,0 L22.25,-15.5, L0,0" fill="none" stroke="black" stroke-width="4.3" transform="translate(232.75,298.5)" />
<path d="M0,0 Q14,3,29,20 Q14,3,0,0" fill="none" stroke="black" stroke-width="5.3" transform="translate(320,283)" />
<path d="M0,0 Q14,-3,29,-20 Q14,-3,0,0" fill="none" stroke="black" stroke-width="5.3" transform="translate(320,283)" />
<path d="M0,0 A14,14,360,1,1,28,0 L0,0" fill="white" stroke="black" stroke-width=".15" transform="translate(262,283)" />
<path d="M0,0 A5.5,7.5,360,1,1,11,0 L0,0" fill="white" stroke="black" stroke-width=".15" transform="translate(373,247.5)" />
<path d="M0,0 L0,588 L0,0" fill="none" stroke="white" stroke-width="6" transform="translate(3,0)" />
<path d="M0,0 L208,8.5 L341.5,17 L517,21 L650,22 L517,21" fill="none" stroke="white" stroke-width="4" transform="translate(0,578)" />
<path d="M0,0 L0,448.5 L0,0" fill="none" stroke="white" stroke-width="4" transform="translate(638,0)" />
<path d="M0,0 L0,-33 L0,0" fill="none" stroke="white" stroke-width="6" transform="translate(275,25)" />
<path d="M0,0 L0,431.98 L0,0" fill="none" stroke="white" stroke-width="5" transform="translate(522,25)" />
<path d="M0,0 L12,0 L0,0" fill="none" stroke="white" stroke-width="30" transform="translate(512,186.5)" />
<path d="M0,0 L31,0 L0,0" fill="none" stroke="white" stroke-width="4" transform="translate(491,170)" />
<path d="M0,0 L31,0 L0,0" fill="none" stroke="white" stroke-width="4" transform="translate(491,203)" />
<path d="M0,0 L0,142.12 L0,0" fill="none" stroke="white" stroke-width="5" transform="translate(517,456.88)" />
<path d="M0,0 L8,0 L0,0" fill="none" stroke="white" stroke-width="4" transform="translate(500,492)" />
<path d="M0,0 L9,10 L0,0" fill="none" stroke="white" stroke-width="4" transform="translate(508,492)" />
<path d="M0,0 L9,-10 L0,0" fill="none" stroke="white" stroke-width="4" transform="translate(508,492)" />
<path d="M0,0 L17,-8 L0,0" fill="none" stroke="white" stroke-width="4" transform="translate(500,524)" />
<path d="M0,0 L0,4 L0,0" fill="none" stroke="white" stroke-width="4" transform="translate(502,524)" />
<path d="M0,0 L17,8 L0,0" fill="none" stroke="white" stroke-width="4" transform="translate(500,528)" />
<path d="M0,0 L12.5,0 L0,0" fill="none" stroke="white" stroke-width="4" transform="translate(517,536)" />
<path d="M0,0 L12.5,-15 L0,0" fill="none" stroke="white" stroke-width="4" transform="translate(517,551)" />
<path d="M0,0 L15.5,15 L0,0" fill="none" stroke="white" stroke-width="4" transform="translate(517,468)" />
<path d="M0,0 L12.5,-12 L0,0" fill="none" stroke="white" stroke-width="4" transform="translate(517,504)" />
<path d="M0,0 L12.5,12 L0,0" fill="none" stroke="white" stroke-width="4" transform="translate(517,480)" />
<path d="M0,0 L15,-18 L0,0" fill="none" stroke="white" stroke-width="4" transform="translate(517,562)" />
<path d="M0,0 L8,0 L0,0" fill="none" stroke="white" stroke-width="4" transform="translate(500,571)" />
<path d="M0,0 L9,9 L0,0" fill="none" stroke="white" stroke-width="4" transform="translate(508,571)" />
<path d="M0,0 L9,-9 L0,0" fill="none" stroke="white" stroke-width="4" transform="translate(508,571)" />
<path d="M0,0 Q0,-6,7,-6 L108,-3 Q0,-6,7,-6" fill="none" stroke="white" stroke-width="4" transform="translate(565,454.5)" />
<path d="M0,0 L0,170 L0,0" fill="none" stroke="white" stroke-width="6" transform="translate(115,145)" />
<path d="M0,0 L132,0 L0,0" fill="none" stroke="white" stroke-width="5" transform="translate(3,186.5)" />
<path d="M0,0 L0,100 L0,0" fill="none" stroke="white" stroke-width="5" transform="translate(57,119)" />
<path d="M0,0 L-45.5,45.5 L0,0" fill="none" stroke="white" stroke-width="5" transform="translate(57,141)" />
<path d="M0,0 L162,0 L0,0" fill="none" stroke="white" stroke-width="5" transform="translate(57,145)" />
<path d="M0,0 L58,49.5 L0,0" fill="none" stroke="white" stroke-width="5" transform="translate(57,137)" />
<path d="M0,0 L25,0 L104,-37 L24,0" fill="none" stroke="white" stroke-width="5" transform="translate(115,178)" />
<path d="M0,0 L0,-43 Q-14,-62,-9,-92 Q-7,-102,-17,-107" fill="none" stroke="white" stroke-width="4" transform="translate(103,337)" />
<path d="M0,0 L0,97 L24,117 L29,117 L24,117" fill="none" stroke="white" stroke-width="4" transform="translate(86,186.5)" />
<path d="M0,0 L83,0 L0,0" fill="none" stroke="white" stroke-width="5" transform="translate(3,205)" />
<path d="M0,0 L-30,18 L0,0" fill="none" stroke="white" stroke-width="4" transform="translate(33,278)" />
<path d="M0,0 L13,0 L0,0" fill="none" stroke="white" stroke-width="10" transform="translate(0,326)" />
<path d="M0,0 L18,0 L0,0" fill="none" stroke="white" stroke-width="8" transform="translate(0,299)" />
<path d="M0,0 L0,11 L0,0" fill="none" stroke="white" stroke-width="5" transform="translate(152,134)" />
<path d="M0,0 L0,20.58 L0,0" fill="none" stroke="white" stroke-width="5" transform="translate(190,134)" />
<path d="M0,0 L29,38 L0,0" fill="none" stroke="white" stroke-width="5" transform="translate(190,145)" />
<path d="M0,0 L0,-18.57 L0,0" fill="none" stroke="white" stroke-width="5" transform="translate(207.5,186.5)" />
<path d="M0,0 L206.5,0 L0,0" fill="none" stroke="white" stroke-width="5" transform="translate(207.5,186.5)" />
<path d="M0,0 L16,0 L0,0" fill="none" stroke="white" stroke-width="10" transform="translate(203,85)" />
<path d="M0,0 L166,0 L0,0" fill="none" stroke="white" stroke-width="6" transform="translate(219,85)" />
<path d="M0,0 L0,270, L0,0" fill="none" stroke="white" stroke-width="4" transform="translate(349,98)" />
<path d="M0,0 Q-14,2,-18,16 Q-14,2,0,0" fill="none" stroke="white" stroke-width="4" transform="translate(367,85)" />
<path d="M0,0 Q14,2,18,16 Q14,2,0,0" fill="none" stroke="white" stroke-width="4" transform="translate(331,85)" />
<path d="M0,0 L8,0 L0,0" fill="none" stroke="white" stroke-width="4" transform="translate(349,131)" />
<path d="M0,0 L96,-56 L0,0" fill="none" stroke="white" stroke-width="5" transform="translate(219,141)" />
<path d="M0,0 L518,0 L0,0" fill="none" stroke="white" stroke-width="5" transform="translate(120,25)" />
<path d="M0,0 L0,60 L0,0" fill="none" stroke="white" stroke-width="5" transform="translate(320.5,25)" />
<path d="M0,0 Q3,-56,56,-60 Q3,-56,0,0" fill="none" stroke="white" stroke-width="5" transform="translate(219,85)" />
<path d="M0,0 Q43.5,0,45.5,60 Q43.5,0,0,0" fill="none" stroke="white" stroke-width="5" transform="translate(275,25)" />
<path d="M0,0 L5.5,0 L0,0" fill="none" stroke="white" stroke-width="6" transform="translate(320.5,54)" />
<path d="M0,0 L0,75 L0,0" fill="none" stroke="white" stroke-width="6" transform="translate(407.5,84)" />
<path d="M0,0 L115.5,0 L0,0" fill="none" stroke="white" stroke-width="5" transform="translate(407.5,111)" />
<path d="M0,0 L224,0 L0,0" fill="none" stroke="white" stroke-width="5" transform="translate(414,259)" />
<path d="M0,0 L25,25 L0,0" fill="none" stroke="white" stroke-width="5" transform="translate(414,149)" />
<path d="M0,0 Q20,0,25,-12.5 Q20,0,0,0" fill="none" stroke="white" stroke-width="5" transform="translate(414,186.5)" />
<path d="M0,0 L-2,8 L-25,48 L-2,8" fill="none" stroke="white" stroke-width="5" transform="translate(439,174)" />
<path d="M0,0 L-15,-15 L0,0" fill="none" stroke="white" stroke-width="4" transform="translate(429,137.5)" />
<path d="M0,0 L0,-12 L0,0" fill="none" stroke="white" stroke-width="4" transform="translate(468.5,123)" />
<path d="M0,0 L-15,15 L0,0" fill="none" stroke="white" stroke-width="4" transform="translate(429,235.5)" />
<path d="M0,0 L0,9 L0,0" fill="none" stroke="white" stroke-width="4" transform="translate(468.5,250)" />
<path d="M0,0 L14,-14 L0,0" fill="none" stroke="white" stroke-width="4" transform="translate(508,137.5)" />
<path d="M0,0 L7,7 L14,7 L7,7" fill="none" stroke="white" stroke-width="4" transform="translate(508,235.5)" />
<path d="M0,0 L3,3 L3,29 L3,3" fill="none" stroke="white" stroke-width="4" transform="translate(448,230)" />
<path d="M0,0 L0,6.5, L0,0" fill="none" stroke="white" stroke-width="21" transform="translate(378.5,247.5)" />
<path d="M0,0 L64,0, L0,0" fill="none" stroke="white" stroke-width="5" transform="translate(349,247.5)" />
<path d="M0,0 L131,0 L0,0" fill="none" stroke="white" stroke-width="5" transform="translate(3,450)" />
<path d="M0,0 L124,0 L0,0" fill="none" stroke="white" stroke-width="5" transform="translate(3,435)" />
<path d="M0,0 L7,15 L0,0" fill="none" stroke="white" stroke-width="5" transform="translate(127,435)" />
<path d="M0,0 L0,147.58 L0,0" fill="none" stroke="white" stroke-width="4" transform="translate(115,435)" />
<path d="M0,0 L5,0 L0,0" fill="none" stroke="white" stroke-width="6" transform="translate(127,394.5)" />
<path d="M0,0 L9,0 L28,-25 L9,0" fill="none" stroke="white" stroke-width="4" transform="translate(106,475)" />
<path d="M0,0 L9,0 L0,0" fill="none" stroke="white" stroke-width="4" transform="translate(106,494)" />
<path d="M0,0 L0,64 L0,0" fill="none" stroke="white" stroke-width="5" transform="translate(36.5,401)" />
<path d="M0,0 L-33.5,24 L0,0" fill="none" stroke="white" stroke-width="4" transform="translate(36.5,403)" />
<path d="M0,0 L0,30 L0,0" fill="none" stroke="white" stroke-width="4" transform="translate(86,435)" />
<path d="M0,0 L14,20.5 L27,20.5 L14,20.5" fill="none" stroke="white" stroke-width="4" transform="translate(115,494)" />
<path d="M0,0 L0,42.23 L0,0" fill="none" stroke="white" stroke-width="5" transform="translate(155.5,542)" />
<path d="M0,0 L0,17.64 L0,0" fill="none" stroke="white" stroke-width="5" transform="translate(92,564)" />
<path d="M0,0 L0,29.82 L0,0" fill="none" stroke="white" stroke-width="10" transform="translate(72,551)" />
<path d="M0,0 L19,0 L0,0" fill="none" stroke="white" stroke-width="10" transform="translate(67,546)" />
<path d="M0,0 L0,425 L0,0" fill="none" stroke="white" stroke-width="6" transform="translate(219,25)" />
<path d="M0,0 L-3,26 L-3,60.5" fill="none" stroke="white" stroke-width="5" transform="translate(211,526)" />
<path d="M0,0 L71,0 L0,0" fill="none" stroke="white" stroke-width="9" transform="translate(209,526)" />
<path d="M0,0 L20,0 L0,0" fill="none" stroke="white" stroke-width="15" transform="translate(273,528.5)" />
<path d="M0,0 L0,65.72 L0,0" fill="none" stroke="white" stroke-width="5" transform="translate(290,526)" />
<path d="M0,0 L0,74.5 L0,0" fill="none" stroke="white" stroke-width="7" transform="translate(273,452)" />
<path d="M0,0 Q5,47,54,74 Q5,47,0,0" fill="none" stroke="white" stroke-width="5" transform="translate(219,452)" />
<path d="M0,0 Q14,-60,60,-74 Q14,-60,0,0" fill="none" stroke="white" stroke-width="5" transform="translate(213,526)" />
<path d="M0,0 Q18,25,17,74 Q18,25,0,0" fill="none" stroke="white" stroke-width="5" transform="translate(273,452)" />
<path d="M0,0 L54,0 L354,6 L54,0" fill="none" stroke="white" stroke-width="6" transform="translate(219,452)" />
<path d="M0,0 L0,12 L0,0" fill="none" stroke="white" stroke-width="8" transform="translate(205,396)" />
<path d="M0,0 L12.5,45 L0,0" fill="none" stroke="white" stroke-width="5" transform="translate(206.5,407)" />
<path d="M0,0 Q2.5,15,4,30 Q2.5,15,0,0" fill="none" stroke="white" stroke-width="5" transform="translate(216,441)" />
<path d="M0,0 Q3,38,-6,74 Q3,38,0,0" fill="none" stroke="white" stroke-width="5" transform="translate(219,452)" />
<path d="M0,0 L0,15.62 L0,0" fill="none" stroke="white" stroke-width="17" transform="translate(341.5,453.38)" />
<path d="M0,0 L0,7 L0,0" fill="none" stroke="white" stroke-width="13" transform="translate(341.5,588)" />
<path d="M0,0 L16,-13 L0,0" fill="none" stroke="white" stroke-width="5" transform="translate(203,401)" />
<path d="M0,0 Q35,8,57,23 Q35,8,0,0" fill="none" stroke="white" stroke-width="5" transform="translate(162,365)" />
<path d="M0,0 L0,21 L0,0" fill="none" stroke="white" stroke-width="4" transform="translate(205,353)" />
<path d="M0,0 L31,0 L69,-20.5 L31,0" fill="none" stroke="white" stroke-width="5" transform="translate(150,387.5)" />
<path d="M0,0 L0,120 L0,0" fill="none" stroke="white" stroke-width="6" transform="translate(127,315)" />
<path d="M0,0 L12,0 A14,14,360,1,1,25,0" fill="none" stroke="white" stroke-width="4" transform="translate(127,387.5)" />
<path d="M0,0 Q11,-26,35,-7 Q13,-26,0,0" fill="none" stroke="white" stroke-width="6" transform="translate(127,372)" />
<path d="M0,0 L78,0 L0,0" fill="none" stroke="white" stroke-width="5" transform="translate(127,319.5)" />
<path d="M0,0 L52,50 L0,0" fill="none" stroke="white" stroke-width="5" transform="translate(127,315)" />
<path d="M0,0 L0,45.5 L0,0" fill="none" stroke="white" stroke-width="5" transform="translate(179,319.5)" />
<path d="M0,0 Q30,3,52,28 Q30,3,0,0" fill="none" stroke="white" stroke-width="5" transform="translate(127,337)" />
<path d="M0,0 L29,0 L0,0" fill="none" stroke="white" stroke-width="5" transform="translate(98,315)" />
<path d="M0,0 L29,0 L0,0" fill="none" stroke="white" stroke-width="5" transform="translate(98,337)" />
<path d="M0,0 L0,485.65 L0,0" fill="none" stroke="white" stroke-width="8" transform="translate(414,111)" />
<path d="M0,0 L24,0 L0,0" fill="none" stroke="white" stroke-width="12" transform="translate(390,528.5)" />
<path d="M0,0 L69,0 L0,0" fill="none" stroke="white" stroke-width="5" transform="translate(414,531.5)" />
<path d="M0,0 L14,0 L0,0" fill="none" stroke="white" stroke-width="5" transform="translate(414,487)" />
<path d="M0,0 L14,0 L0,0" fill="none" stroke="white" stroke-width="5" transform="translate(414,576)" />
<path d="M0,0 L0,10 L7,17 L17,17 L24,10 L24,0 L17,-7 L7,-7 L0,0 L0,10" fill="none" stroke="white" stroke-width="5" transform="translate(440.5,526.5)" />
<path d="M0,0 L0,23.5 L0,0" fill="none" stroke="white" stroke-width="5" transform="translate(452.5,496)" />
<path d="M0,0 L-30,27.5 L0,0" fill="none" stroke="white" stroke-width="5" transform="translate(444,540)" />
<path d="M0,0 L0,21 L0,0" fill="none" stroke="white" stroke-width="11" transform="translate(284,431)" />
<path d="M0,0 L0,38 L0,0" fill="none" stroke="white" stroke-width="13" transform="translate(252.5,414)" />
<path d="M0,0 Q10,15,36,22 Q10,15,0,0" fill="none" stroke="white" stroke-width="5" transform="translate(219,430)" />
<path d="M0,0 L0,17 L0,0" fill="none" stroke="white" stroke-width="4" transform="translate(342,435)" />
<path d="M0,0 L0,17 L0,0" fill="none" stroke="white" stroke-width="4" transform="translate(335,435)" />
<path d="M0,0 L82,0 L0,0" fill="none" stroke="white" stroke-width="5" transform="translate(414,363.5)" />
<path d="M0,0 L14,0 L0,0" fill="none" stroke="white" stroke-width="5" transform="translate(414,295.5)" />
<path d="M0,0 L14,0 L0,0" fill="none" stroke="white" stroke-width="5" transform="translate(414,431.5)" />
<path d="M0,0 L0,100, L0,0" fill="none" stroke="white" stroke-width="5" transform="translate(486.5,313.5)" />
<path d="M0,0 L72.5,0, L0,0" fill="none" stroke="white" stroke-width="5" transform="translate(414,313.5)" />
<path d="M0,0 L72.5,0, L0,0" fill="none" stroke="white" stroke-width="5" transform="translate(414,413.5)" />
<path d="M0,0 L-3,5, L0,0" fill="none" stroke="white" stroke-width="5" transform="translate(489.5,308.5)" />
<path d="M0,0 L3,5, L0,0" fill="none" stroke="white" stroke-width="5" transform="translate(486.5,413.5)" />
<path d="M0,0 L63.5,100, L0,0" fill="none" stroke="white" stroke-width="5" transform="translate(423,313.5)" />
<path d="M0,0 L-63.5,100, L0,0" fill="none" stroke="white" stroke-width="5" transform="translate(486.5,313.5)" />
<path d="M0,0 L264,0, L0,0" fill="none" stroke="white" stroke-width="6" transform="translate(150,365)" />
<path d="M0,0 L9.5,0, L0,0" fill="none" stroke="white" stroke-width="4" transform="translate(486.5,395)" />
<path d="M0,0 L-12,0, L0,0" fill="none" stroke="white" stroke-width="4" transform="translate(486.5,397)" />
<path d="M0,0 L0,24, L52,24 L0,24" fill="none" stroke="white" stroke-width="4" transform="translate(472,259)" />
<path d="M0,0 84,0, L0,0" fill="none" stroke="white" stroke-width="5" transform="translate(330,411)" />
<path d="M0,0 0,4, L0,0" fill="none" stroke="white" stroke-width="6" transform="translate(330,411)" />
<path d="M0,0 0,4, L0,0" fill="none" stroke="white" stroke-width="6" transform="translate(375,411)" />
<path d="M0,0 L0,15 Q0,43,20,46 Q0,41,0,15" fill="none" stroke="white" stroke-width="5" transform="translate(310,365)" />
<path d="M0,0 L0,15 Q0,43,-21.5,46 Q0,43,0,15" fill="none" stroke="white" stroke-width="5" transform="translate(351.5,365)" />
<path d="M0,0 L0,15 Q0,43,21,46 Q0,43,0,15" fill="none" stroke="white" stroke-width="5" transform="translate(354,365)" />
<path d="M0,0 Q-8,40,-34,46 Q-8,40,0,0" fill="none" stroke="white" stroke-width="5" transform="translate(414,365)" />
<path d="M0,0 Q0,-24,24.5,-24 Q0,-24,0,0" fill="none" stroke="white" stroke-width="5" transform="translate(354,365)" />
<path d="M0,0 Q-12,-24,-35.5,-24 Q-12,-24,0,0" fill="none" stroke="white" stroke-width="5" transform="translate(414,365)" />
<path d="M0,0 L68,0 L0,0" fill="none" stroke="white" stroke-width="5" transform="translate(349,341)" />
<path d="M0,0 L0,29 L0,0" fill="none" stroke="white" stroke-width="5" transform="translate(268,365)" />
<path d="M0,0 L0,5 L0,0" fill="none" stroke="white" stroke-width="21" transform="translate(378.5,336)" />
<path d="M0,0 L112,0 L0,0" fill="none" stroke="white" stroke-width="5" transform="translate(208,283)" />
<path d="M0,0 L11,0 L0,0" fill="none" stroke="white" stroke-width="5" transform="translate(208,314)" />
<path d="M0,0 L11,0 L0,0" fill="none" stroke="white" stroke-width="5" transform="translate(208,250)" />
<path d="M0,0 L11,0 L0,0" fill="none" stroke="white" stroke-width="5" transform="translate(208,220)" />
<path d="M0,0 Q0,31,-15,31 Q0,31,0,0" fill="none" stroke="white" stroke-width="4" transform="translate(234,283)" />
<path d="M0,0 Q15,0,15,18 Q15,0,0,0" fill="none" stroke="white" stroke-width="4" transform="translate(219,265)" />
<path d="M0,0 L0,49 L0,0" fill="none" stroke="white" stroke-width="4" transform="translate(251,283)" />
<path d="M0,0 L0,49 L0,0" fill="none" stroke="white" stroke-width="4" transform="translate(301,283)" />
<path d="M0,0 L54,0 L0,0" fill="none" stroke="white" stroke-width="4" transform="translate(249,330)" />
<path d="M0,0 L0,6 L0,0" fill="none" stroke="white" stroke-width="14" transform="translate(276,283)" />
<path d="M0,0 L22.25,-15.5, L0,0" fill="none" stroke="white" stroke-width="4" transform="translate(232.75,298.5)" />
<path d="M0,0 Q14,3,29,20 Q14,3,0,0" fill="none" stroke="white" stroke-width="5" transform="translate(320,283)" />
<path d="M0,0 Q14,-3,29,-20 Q14,-3,0,0" fill="none" stroke="white" stroke-width="5" transform="translate(320,283)" />
<path d="M0,0 L21,0 L21,25 L31,25 L31,13 L39,13 L39,18 L78,18 L78,104 L31,104 L31,92
L21,92 L21,110 L0,131 L0,0 L21,0" fill="#BBBBBB" stroke="black" stroke-width=".3" transform="translate(31,27)" />
<path d="M0,0 L17,0 L17,-12 L86,-12 L86,87 L22,87 L22,74 L16,74 L16,21 L0,21 L0,0 L17,0" fill="#BBBBBB" stroke="black" stroke-width=".3" transform="translate(117,47)" />
<path d="M0,0 L72,0 L72,19 L85,19 L85,14 L100,14 L100,10 L190,10 L190,72
L87,72 L87,49 L73,49 L73,58 L76,58 L76,136 L74,136 L74,143 L33,143 L33,136 L31,136 L31,58 L59,58
L59,38 L0,38 L0,0 L71,0" fill="#BBBBBB" stroke="black" stroke-width=".3" transform="translate(326,35)" />
<path d="M0,0 L16,0 L16,1 L39,1 L39,0 L58,0 L58,1 L81,1 L81,0 L97,0 L97,15 L95,15
L95,49 L97,49 L97,70 L95,70 L95,104 L97,104 L97,119 L81,119 L81,118 L58,118 L58,119 L39,119 L39,118
L16,118 L16,119 L0,119 L0,104 L2,104 L2,70 L0,70 L0,49 L2,49 L2,15 L0,15 L0,0 L15,0" fill="#BBBBBB" stroke="black" stroke-width=".3" transform="translate(293,469)" />
<path d="M0,0 L9,0 L9,-4 A12,12,360,1,1,18,-4 L18,0 L47,0 L72,0 L72,6 L71,6
L71,132 L77,132 L77,140 L71,140 L71,152 L69,152 L69,171 L26,171 L26,152 L10,152 L10,65 L2,65 L2,55
L10,55 L10,9 L0,9 L0,0 L9,0" fill="#BBBBBB" stroke="black" stroke-width=".3" transform="translate(132,390)" />
<path d="M0,0 L67,0 L72,5 L72,102 L67,107 L0,107 L0,89 L50,89 L55,84 L55,23 L50,18
L0,18 L0,0 L63,0" fill="#BBBBBB" stroke="black" stroke-width=".3" transform="translate(428,478)" />
<path d="M0,0 L31,0 L31,-6 L25,-6 L25,-24 L43,-24 L43,-6 L37,-6 L37,0 L82,0 L86,4
L86,38 L94.5,38 L94.5,50 L86,50 L86,149 L82,153 L0,153 L0,136 L60,136 L69,127 L69,83 L67,83 L67,71
L69,71 L69,26 L60,17 L0,17 L0,0 L31,0" fill="#BBBBBB" stroke="black" stroke-width=".3" transform="translate(425,287)" />
<path d="M0,0 L14,-13 L38,11 L38,-21 L55,-21 L55,11 L79,-13 L93,0 L69,24 L69,28 L90,28
L90,57 69,57 L69,61 L93,85 L79,98 L55,74 L55,106 L38,106 L38,74 L14,98 L0,85 L24,61 L17,55 L17,30 L24,24 L0,0, L14,-13" fill="#BBBBBB" stroke="black" stroke-width=".3" transform="translate(420,144)" />
<path d="M0,0 L44,0 L44,22 L55,22 L55,46 L42,46 L42,42 L20,42 L20,20 L0,20 L0,0 L42,0" fill="#BBBBBB" stroke="black" stroke-width=".3" transform="translate(239,394)" />
<path d="M0,0 L30,0 L30,-2 L38,-2 L38,0 L75,0 L75,-2 L83,-2 L83,0 L107,0 L107,21
L47,21 L47,19 L19,19 L19,21 L0,21 L0,0 L28,0" fill="#BBBBBB" stroke="black" stroke-width=".3" transform="translate(296,417)" />
<path d="M0,0 L69,0 A6,6,360,0,1,75,6 L75,104 A4.5,4,360,1,1,75,113 L75,175 L65,175
L65,165 L70,165 L70,134 L0,134 L0,0 L59,0" fill="#BBBBBB" stroke="black" stroke-width=".3" transform="translate(135,183)" />
<path d="M0,0 L70,0 L70,18 L80,18 L80,46 L70,46 L70,107 L39,107 L35,129 L21,129 L21,107 L0,107
L0,39 L-5,39 L-5,25 L0,25 L0,0 L63,0" fill="#BBBBBB" stroke="black" stroke-width=".3" transform="translate(18,294)" />
<path d="M0,0 L0,-6 L21,-6 L21,0 L33,0 L33,70 L21,70 L21,76 L0,76 L0,70 L-12,70 L-12,0 L0,0" fill="#BBBBBB" stroke="black" stroke-width=".3" transform="translate(368,260)" />
<path d="M0,0 L14,0 L14,10 L24,10 L24,26 L17,26 L17,36 L-3,36 L-3,26 L-10,26 L-10,10 L0,10 L0,0" fill="#BBBBBB" stroke="black" stroke-width=".3" transform="translate(269,289)" />
<path d="M0,0 L12,0 L12,10 L18,10 L18,21 L-6,21 L-6,8 L0,8 L0,0 L9,0" fill="#BBBBBB" stroke="black" stroke-width=".3" transform="translate(86,543)" />
<path d="M9,0 L63,0 L63,58 L44,58 L44,54 L0,54 L0,10 L9,10 L9,0 L63,0" fill="white" stroke="black" stroke-width=".3" transform="translate(216,530.5)" />
<path d="M0,0 L40,0 L40,-5 L78,-5 L86,5 L86,40 L47,40 L47,125 L37,125 L37,93 L32,88 L0,88 L0,0 L25,0" fill="white" stroke="black" stroke-width=".3" transform="translate(20,465)" />
<path d="M0,0 L84,0 L84,95 L33,95 L33,89 L23,89 L23,23 L31,23 L31,13.5 L0,13.5 L0,0 L82,0" fill="white" stroke="black" stroke-width=".3" transform="translate(0,189)" />
<path d="M0,0 L107.5,0 L107.5,35 L117.5,35 L117.5,50 L107.5,50 L107.5,92 L117.5,92 L117.5,108 L107.5,108 L107.5,151 L117.5,151 L117.5,166 L107.5,166 L107.5,203 L0,203 L0,0 L104.5,0" fill="white" stroke="black" stroke-width=".3" transform="translate(524.5,45)" />
<path d="M0,0 L107.5,0 L107.5,34 L117.5,34 L117.5,49 L107.5,49 L107.5,91 L117.5,91 L117.5,107 L107.5,107 L107.5,145 L0,145 L0,0 L104.5,0" fill="white" stroke="black" stroke-width=".3" transform="translate(524.5,269)" />
<path d="M0,0 L37,0 Q37,-16,48,-16 L148,-13 L148,-4 L55,-6 Q46,-7,46,0 L56,0 L56,81 L0,81 L0,0 L30,0" fill="white" stroke="black" stroke-width=".3" transform="translate(529.5,471)" />
<path d="M0,0 L12,0 L12,14 L10,14 L10,15.5 L2,15.5 L2,12 L-2,12 L-2,10 L0,10 L0,0 L12,0" fill="white" stroke="none" stroke-width=".25" transform="translate(375,508.5)" />
<path d="M0,0 L14,0 L14,14 L12,14 L12,19 L0,19 L0,0 L14,0" fill="white" stroke="none" stroke-width=".25" transform="translate(360.5,504)" />
<path d="M0,0 L12,0 L12,11.5 L0,11.5 L0,0 L12,0" fill="white" stroke="none" stroke-width=".25" transform="translate(375,496.5)" />
<path d="M0,0 L10,0 L10,12.5 L-2,12.5 L-2,2 L0,0 L10,0" fill="white" stroke="none" stroke-width=".25" transform="translate(377,483.5)" />
<path d="M0,0 L14,0 L14,13 L2,13 L0,11 L0,0 L14,0" fill="white" stroke="none" stroke-width=".25" transform="translate(375,470)" />
<path d="M0,0 L7.5,0 L7.5,10 L5.5,12 L0,12 L0,0 L7.5,0" fill="white" stroke="none" stroke-width=".25" transform="translate(367,471)" />
<path d="M0,0 L11.5,0 L11.5,12 L0,12 L0,0 L11.5,0" fill="white" stroke="none" stroke-width=".25" transform="translate(355,471)" />
<path d="M2,2 L2,0 L9.5,0 L9.5,12 L0,12 L0,2 L2,2 L2,0" fill="white" stroke="none" stroke-width=".25" transform="translate(345,471)" />
<path d="M0,0 L7,0 L7,2 L9,2 L9,10 L7.5,10 L7.5,12 L0,12 L0,0 L7,0" fill="white" stroke="none" stroke-width=".25" transform="translate(345,485)" />
<path d="M0,0 L5,0 L9,4 L9,8.5 L6,11.5 L1,11.5 L-3,7.5 L-3,3 L0,0 L5,0" fill="white" stroke="none" stroke-width=".25" transform="translate(361.5,487)" />
<path d="M0,0 L6,0 L6,1 L9,1 L9,9 L0,9 L0,0 L6,0" fill="white" stroke="none" stroke-width=".25" transform="translate(307,511)" />
<path d="M0,0 L10,0 L14,3.5 L14,7 L0,7 L0,0 L10,0" fill="white" stroke="none" stroke-width=".25" transform="translate(296,483.5)" />
<path d="M0,0 L14,0 L14,11 L12,13 L0,13 L0,0 L14,0" fill="white" stroke="none" stroke-width=".25" transform="translate(294,470)" />
<path d="M0,0 L9.5,0 L9.5,12 L5.5,12 L4,14 L0,10 L0,0 L9.5,0" fill="white" stroke="none" stroke-width=".25" transform="translate(308.5,471)" />
<path d="M0,0 L9.5,0 L9.5,12 L0,12 L0,0 L9.5,0" fill="white" stroke="none" stroke-width=".25" transform="translate(318.5,471)" />
<path d="M0,0 L8.5,0 L8.5,1.5 L9.5,1.5 L9.5,10 L7.5,10 L7.5,12 L0,12 L0,0 L8.5,0" fill="white" stroke="none" stroke-width=".25" transform="translate(328.5,471)" />
<path d="M0,0 L5,-2.5 L22,-2.5 L27,0 L27,13.5 L23,17.5 L20,17.5 L19.5,19 L7.5,19 L7,17.5 L4,17.5 L0,13.5 L0,0 L5,-2.5" fill="white" stroke="none" stroke-width=".25" transform="translate(327.5,519)" />
<path d="M0,0 L6.5,0 L6.5,-2 L25.5,-2 L25.5,-4 L24.5,-5 L26,-6.5 L27.5,-5, L27.5,0 Q27.5,8,18.5,12.5 L9,12.5 Q0,8,0,0 L6.5,0" fill="white" stroke="none" stroke-width=".25" transform="translate(327.5,541)" />
<path d="M0,0 A10.5,10.5,360,0,1,10.5,10.5 L14.5,10.5 A14.5,14.5,360,0,0,0,-4" fill="white" stroke="none" stroke-width=".25" transform="translate(341,505.5)" />
<path d="M0,0 L15,0 L15,3.5 L11.5,3.5 L12.5,6 L5,8 L0,3 L0,0 L15,0" fill="white" stroke="none" stroke-width=".25" transform="translate(318,486)" />
<path d="M0,0 L0,15 L3.5,15 L3.5,11 L6,12.5 L8,5 L3,0 L0,0 L0,15" fill="white" stroke="none" stroke-width=".25" transform="translate(312,492.5)" />
<path d="M0,0 L12,0 L12,7 L15.5,7 L15.5,15.5 L13,15.5 L13,19.5 L10.5,19.5 L10.5,31.5 L0,31.5 L0,0 L12,0" fill="white" stroke="none" stroke-width=".25" transform="translate(296,491)" />
<path d="M0,0 L9,-11" fill="white" stroke="none" stroke-width=".25" transform="translate(333.5,516.5)" />
</svg>