<?xml version="1.0" encoding="UTF-8"?>
<svg xmlns="http://www.w3.org/2000/svg" xmlns:xlink="http://www.w3.org/1999/xlink"
     width="430.56" height="502.32" viewBox="0 0 120 140">
<defs>
</defs>
<path d="M0,0 L16,0 L16,1 L39,1 L39,0 L58,0 L58,1 L81,1 L81,0 L97,0 L97,15 L95,15
L95,49 L97,49 L97,70 L95,70 L95,104 L97,104 L97,119 L81,119 L81,118 L58,118 L58,119 L39,119 L39,118
L16,118 L16,119 L0,119 L0,104 L2,104 L2,70 L0,70 L0,49 L2,49 L2,15 L0,15 L0,0 L15,0" fill="grey" stroke="black" stroke-width=".5" transform="translate(10,10)" />
</svg>